<?xml version="1.0" encoding="UTF-8" standalone="no"?>
<svg
   xmlns:dc="http://purl.org/dc/elements/1.1/"
   xmlns:cc="http://creativecommons.org/ns#"
   xmlns:rdf="http://www.w3.org/1999/02/22-rdf-syntax-ns#"
   xmlns:svg="http://www.w3.org/2000/svg"
   xmlns="http://www.w3.org/2000/svg"
   xmlns:sodipodi="http://sodipodi.sourceforge.net/DTD/sodipodi-0.dtd"
   xmlns:inkscape="http://www.inkscape.org/namespaces/inkscape"
   width="297mm"
   height="210mm"
   viewBox="0 0 297 210"
   version="1.1"
   id="svg8"
   inkscape:version="1.0.1 (0767f8302a, 2020-10-17)"
   sodipodi:docname="claseobjeto.svg">
  <defs
     id="defs2" />
  <sodipodi:namedview
     id="base"
     pagecolor="#ffffff"
     bordercolor="#666666"
     borderopacity="1.0"
     inkscape:pageopacity="0.0"
     inkscape:pageshadow="2"
     inkscape:zoom="1.42"
     inkscape:cx="498.80124"
     inkscape:cy="392.69639"
     inkscape:document-units="mm"
     inkscape:current-layer="layer1"
     inkscape:document-rotation="0"
     showgrid="false"
     showguides="true"
     inkscape:guide-bbox="true"
     inkscape:window-width="1920"
     inkscape:window-height="1043"
     inkscape:window-x="1366"
     inkscape:window-y="0"
     inkscape:window-maximized="1">
    <inkscape:grid
       type="xygrid"
       id="grid12" />
    <sodipodi:guide
       position="150,93.583334"
       orientation="-1,0"
       id="guide14"
       inkscape:label=""
       inkscape:locked="false"
       inkscape:color="rgb(0,0,255)" />
    <sodipodi:guide
       position="181.23958,90"
       orientation="0,1"
       id="guide16"
       inkscape:label=""
       inkscape:locked="false"
       inkscape:color="rgb(0,0,255)" />
    <sodipodi:guide
       position="145.89001,94.076716"
       orientation="0.70710678,0.70710678"
       id="guide106"
       inkscape:label=""
       inkscape:locked="false"
       inkscape:color="rgb(0,0,255)" />
    <sodipodi:guide
       position="139.82571,79.661817"
       orientation="-0.70710678,0.70710678"
       id="guide108"
       inkscape:label=""
       inkscape:locked="false"
       inkscape:color="rgb(0,0,255)" />
  </sodipodi:namedview>
  <metadata
     id="metadata5">
    <rdf:RDF>
      <cc:Work
         rdf:about="">
        <dc:format>image/svg+xml</dc:format>
        <dc:type
           rdf:resource="http://purl.org/dc/dcmitype/StillImage" />
        <dc:title></dc:title>
      </cc:Work>
    </rdf:RDF>
  </metadata>
  <g
     inkscape:label="Capa 1"
     inkscape:groupmode="layer"
     id="layer1">
    <ellipse
       style="fill:none;fill-opacity:0.98225;stroke:#000000;stroke-width:0.116;stroke-dasharray:0.464,0.116;stroke-miterlimit:4;stroke-dashoffset:0"
       id="path10"
       cx="149.94862"
       cy="120.26739"
       rx="49.895046"
       ry="48.930645" />
    <ellipse
       style="fill:none;fill-opacity:0.98225;stroke:#000000;stroke-width:0.109718;stroke-dasharray:0.438873, 0.109718"
       id="path10-6"
       cx="150.04779"
       cy="120.0028"
       rx="25.297331"
       ry="24.786558" />
    <path
       style="fill:none;stroke:#000000;stroke-width:0.264583px;stroke-linecap:butt;stroke-linejoin:miter;stroke-opacity:1"
       d="m 168.17562,137.28668 17.34354,17.21204 c 0,0 7.13331,-6.57455 10.86773,-16.18928 3.73443,-9.61472 3.35586,-17.38157 3.35586,-17.38157 l -24.39471,0.0432 c 0,0 -0.16392,4.15965 -1.82916,8.41505 -1.48654,4.18686 -5.34326,7.90056 -5.34326,7.90056 z"
       id="path50-5"
       sodipodi:nodetypes="cczcccc" />
    <path
       style="fill:none;stroke:#000000;stroke-width:0.264583px;stroke-linecap:butt;stroke-linejoin:miter;stroke-opacity:1"
       d="m 175.34416,119.18916 24.48724,-0.0547 c 0,0 -0.0331,-8.01674 -3.32379,-16.65858 -3.29065,-8.641839 -10.87759,-16.528168 -10.87759,-16.528168 l -17.09329,17.008248 c 0,0 2.92579,3.06102 4.9839,7.66954 1.51849,4.2663 1.82353,8.56371 1.82353,8.56371 z"
       id="path50-5-5"
       sodipodi:nodetypes="cczcccc" />
    <path
       style="fill:none;stroke:#000000;stroke-width:0.264583px;stroke-linecap:butt;stroke-linejoin:miter;stroke-opacity:1"
       d="m 167.23412,101.76819 17.01826,-17.094409 c 0,0 -5.64593,-5.652854 -14.70565,-9.419623 -9.05972,-3.766769 -18.6579,-3.848294 -18.6579,-3.848294 l 0.0441,23.767255 c 0,0 4.19844,0.196776 8.93838,1.930902 3.87681,1.657566 5.09154,2.509947 7.36281,4.664169 z"
       id="path50-5-5-2"
       sodipodi:nodetypes="cczcccc"
       inkscape:transform-center-x="-1.979109"
       inkscape:transform-center-y="4.3419257" />
    <path
       style="fill:none;stroke:#000000;stroke-width:0.264583px;stroke-linecap:butt;stroke-linejoin:miter;stroke-opacity:1"
       d="m 149.14578,95.171151 -0.017,-23.896816 c 0,0 -9.07057,0.07912 -18.17088,3.746788 -9.10027,3.667683 -15.17824,9.627376 -15.17824,9.627376 l 17.07798,17.108871 c 0,0 2.59806,-2.405266 7.19331,-4.492828 5.35223,-2.171937 9.09485,-2.093391 9.09485,-2.093391 z"
       id="path50-5-5-2-9"
       sodipodi:nodetypes="cczcccc"
       inkscape:transform-center-x="1.477861"
       inkscape:transform-center-y="4.1255218" />
    <path
       style="fill:none;stroke:#000000;stroke-width:0.264583px;stroke-linecap:butt;stroke-linejoin:miter;stroke-opacity:1"
       d="m 124.73331,119.0654 -24.61554,0.0139 c 0,0 0.0159,-9.048 4.1395,-18.3454 4.12363,-9.297413 10.34062,-14.882156 10.34062,-14.882156 l 17.14484,17.089276 c 0,0 -2.79383,2.54782 -4.93934,7.1163 -1.80467,4.41224 -1.6535,5.83176 -2.07008,9.00805 z"
       id="path50-5-5-1"
       sodipodi:nodetypes="cczccccc" />
    <path
       style="fill:none;stroke:#000000;stroke-width:0.264583px;stroke-linecap:butt;stroke-linejoin:miter;stroke-opacity:1"
       d="m 131.81436,137.23714 -17.46622,17.28325 c 0,0 -7.56741,-7.59772 -10.91772,-16.32174 -3.35031,-8.72402 -3.36525,-17.49343 -3.36525,-17.49343 l 24.72527,-0.0441 c 0,0 0.0267,4.36402 1.98116,9.20239 1.98857,4.78054 5.04276,7.37361 5.04276,7.37361 z"
       id="path50-5-2"
       sodipodi:nodetypes="cczcccc" />
    <path
       style="fill:none;stroke:#000000;stroke-width:0.264583px;stroke-linecap:butt;stroke-linejoin:miter;stroke-opacity:1"
       d="m 132.87778,138.22027 -17.31609,17.45029 c 0,0 6.15399,5.95613 14.67765,9.61781 8.52366,3.66167 19.0709,3.94318 19.0709,3.94318 l 0.0669,-24.41415 c 0,0 -3.63676,-0.1437 -7.97919,-1.53516 -4.16748,-1.33541 -8.52017,-5.06197 -8.52017,-5.06197 z"
       id="path50-5-5-2-0"
       sodipodi:nodetypes="cczccsc"
       inkscape:transform-center-x="1.9791046"
       inkscape:transform-center-y="-4.3419248" />
    <path
       style="fill:none;stroke:#000000;stroke-width:0.264583px;stroke-linecap:butt;stroke-linejoin:miter;stroke-opacity:1"
       d="m 150.54284,144.85626 0.007,24.27456 c 0,0 9.10075,0.40048 19.09139,-3.94228 9.99063,-4.34276 14.84732,-9.65266 14.84732,-9.65266 l -17.21393,-17.34273 c 0,0 -2.5976,2.75484 -7.54986,4.7334 -5.05138,2.01817 -9.18239,1.92971 -9.18239,1.92971 z"
       id="path50-5-5-2-9-9"
       sodipodi:nodetypes="cczccsc"
       inkscape:transform-center-x="-1.4778654"
       inkscape:transform-center-y="-4.1255217" />
    <ellipse
       style="fill:none;fill-opacity:0.98225;stroke:#000000;stroke-width:0.297182;stroke-miterlimit:4;stroke-dasharray:none;stroke-dashoffset:0"
       id="path10-6-7"
       cx="149.97951"
       cy="120.0105"
       rx="23.92791"
       ry="23.624908" />
    <text
       xml:space="preserve"
       style="font-size:5.64444px;line-height:1.25;font-family:sans-serif;stroke-width:0.264583"
       x="124.78696"
       y="152.35069"
       id="text1070"><tspan
         id="tspan1068"
         x="124.78696"
         y="152.35069"
         style="font-style:normal;font-variant:normal;font-weight:normal;font-stretch:normal;font-size:5.64444px;font-family:Manjari;-inkscape-font-specification:Manjari;stroke-width:0.264583"
         sodipodi:role="line">Métodos </tspan></text>
    <text
       xml:space="preserve"
       style="font-size:5.64444px;line-height:1.25;font-family:sans-serif;stroke-width:0.264583"
       x="134.06828"
       y="112.54476"
       id="text1070-1"><tspan
         id="tspan1068-9"
         x="134.06828"
         y="112.54476"
         style="font-style:normal;font-variant:normal;font-weight:normal;font-stretch:normal;font-size:5.64444px;font-family:Manjari;-inkscape-font-specification:Manjari;stroke-width:0.264583"
         sodipodi:role="line">Propiedades </tspan></text>
    <text
       xml:space="preserve"
       style="font-size:6.35px;line-height:1.25;font-family:'Tlwg Typist';-inkscape-font-specification:'Tlwg Typist';stroke-width:0.264583"
       x="140.50554"
       y="122.75049"
       id="text1092"><tspan
         sodipodi:role="line"
         id="tspan1090"
         x="140.50554"
         y="122.75049"
         style="font-size:6.35px;stroke-width:0.264583">a,b,c</tspan></text>
    <text
       xml:space="preserve"
       style="font-size:5.64444px;line-height:1.25;font-family:'Tlwg Typist';-inkscape-font-specification:'Tlwg Typist';stroke-width:0.264583"
       x="128.81221"
       y="160.2303"
       id="text1092-2"><tspan
         sodipodi:role="line"
         id="tspan1090-9"
         x="128.81221"
         y="160.2303"
         style="font-size:5.64444px;stroke-width:0.264583">met1()</tspan></text>
    <text
       xml:space="preserve"
       style="font-size:5.64444px;line-height:1.25;font-family:'Tlwg Typist';-inkscape-font-specification:'Tlwg Typist';stroke-width:0.264583"
       x="155.81883"
       y="160.54594"
       id="text1092-2-3"><tspan
         sodipodi:role="line"
         id="tspan1090-9-6"
         x="155.81883"
         y="160.54594"
         style="font-size:5.64444px;stroke-width:0.264583">met2()</tspan></text>
    <text
       xml:space="preserve"
       style="font-size:5.64444px;line-height:1.25;font-family:sans-serif;stroke-width:0.264583"
       x="125.17368"
       y="67.06765"
       id="text1070-7"><tspan
         id="tspan1068-5"
         x="125.17368"
         y="67.06765"
         style="font-style:normal;font-variant:normal;font-weight:normal;font-stretch:normal;font-size:5.64444px;font-family:Manjari;-inkscape-font-specification:Manjari;stroke-width:0.264583"
         sodipodi:role="line"><tspan
   style="font-size:7.05556px"
   id="tspan67">Clase de objeto</tspan> </tspan></text>
  </g>
</svg>
